<svg width="132.593872" height="37.365723" viewBox="0 0 132.594 37.3657" fill="none" xmlns="http://www.w3.org/2000/svg" xmlns:xlink="http://www.w3.org/1999/xlink">
	<desc>
			Created with Pixso.
	</desc>
	<defs/>
	<path id="LOGO" d="M41.32 0C50.63 0 57.38 7.17 57.38 18.68C57.38 30.18 50.63 37.36 41.32 37.36C32.02 37.36 25.27 30.18 25.27 18.68C25.27 7.17 32.02 0 41.32 0ZM94.16 11.86L89.62 11.86C88.08 7.09 84.51 4.12 79.26 4.12C72.79 4.12 67.6 9.24 67.6 18.68C67.6 28.12 72.79 33.23 79.54 33.23C85.7 33.23 90 29.12 90.12 22.59L80.53 22.59L80.53 18.68L94.38 18.68L94.38 22.59C94.38 31.59 88.21 37.36 79.54 37.36C69.88 37.36 63.34 30.18 63.34 18.68C63.34 7.17 69.93 0 79.26 0C86.92 0 92.82 4.83 94.16 11.86ZM116.54 0C125.84 0 132.59 7.17 132.59 18.68C132.59 30.18 125.84 37.36 116.54 37.36C107.24 37.36 100.48 30.18 100.48 18.68C100.48 7.17 107.24 0 116.54 0ZM21.3 36.86L0 36.86L0 0.5L4.39 0.5L4.39 32.95L21.3 32.95L21.3 36.86ZM41.32 33.23C47.93 33.23 53.12 28.12 53.12 18.68C53.12 9.24 47.93 4.12 41.32 4.12C34.72 4.12 29.53 9.24 29.53 18.68C29.53 28.12 34.72 33.23 41.32 33.23ZM116.54 33.23C123.14 33.23 128.33 28.12 128.33 18.68C128.33 9.24 123.14 4.12 116.54 4.12C109.93 4.12 104.75 9.24 104.75 18.68C104.75 28.12 109.93 33.23 116.54 33.23Z" fill="#FFFFFF" fill-opacity="1.000000" fill-rule="evenodd"/>
</svg>
