<svg width="24.000000" height="17.994385" viewBox="0 0 24 17.9944" fill="none" xmlns="http://www.w3.org/2000/svg" xmlns:xlink="http://www.w3.org/1999/xlink">
	<desc>
			Created with Pixso.
	</desc>
	<defs/>
	<path id="path" d="M16.28 10.42C16.11 10.3 16.07 10.07 16.19 9.9C16.31 9.73 16.55 9.69 16.71 9.81L24 15.05L24 2.8L12.22 11.54C12.15 11.59 12.07 11.62 12 11.62C11.92 11.62 11.84 11.59 11.77 11.54L0 2.8L0 15.05L7.28 9.81C7.44 9.69 7.68 9.73 7.8 9.9C7.92 10.07 7.88 10.3 7.71 10.42L0 15.98L0 16.49C0 17.32 0.67 17.99 1.5 17.99L22.5 17.99C23.32 17.99 24 17.32 24 16.49L24 15.98L16.28 10.42Z" fill="#DFAD60" fill-opacity="1.000000" fill-rule="nonzero"/>
	<path id="path" d="M12 10.77L24 1.86L24 1.49C24 0.67 23.32 0 22.5 0L1.5 0C0.67 0 0 0.67 0 1.49L0 1.86L12 10.77Z" fill="#DFAD60" fill-opacity="1.000000" fill-rule="nonzero"/>
</svg>
