<svg width="56.000122" height="56.013855" viewBox="0 0 56.0001 56.0139" fill="none" xmlns="http://www.w3.org/2000/svg" xmlns:xlink="http://www.w3.org/1999/xlink">
	<desc>
			Created with Pixso.
	</desc>
	<defs/>
	<path id="path" d="M28 1.33C13.33 1.33 1.33 13.3 1.33 28.05C1.33 41.38 11.09 52.45 23.84 54.45L23.84 35.78L17.06 35.78L17.06 28.05L23.84 28.05L23.84 22.16C23.84 15.46 27.81 11.78 33.91 11.78C36.82 11.78 39.86 12.29 39.86 12.29L39.86 18.87L36.5 18.87C33.2 18.87 32.16 20.93 32.16 23.04L32.16 28.05L39.57 28.05L38.37 35.78L32.16 35.78L32.16 54.45C38.44 53.46 44.16 50.25 48.29 45.41C52.42 40.57 54.68 34.41 54.66 28.05C54.66 13.3 42.66 1.33 28 1.33Z" fill="#131313" fill-opacity="1.000000" fill-rule="nonzero"/>
	<path id="path" d="M1.33 28.05C1.33 41.38 11.09 52.45 23.84 54.45L23.84 35.78L17.06 35.78L17.06 28.05L23.84 28.05L23.84 22.16C23.84 15.46 27.81 11.78 33.91 11.78C36.82 11.78 39.86 12.29 39.86 12.29L39.86 18.87L36.5 18.87C33.2 18.87 32.16 20.93 32.16 23.04L32.16 28.05L39.57 28.05L38.37 35.78L32.16 35.78L32.16 54.45C38.44 53.46 44.16 50.25 48.29 45.41C52.42 40.57 54.68 34.41 54.66 28.05C54.66 13.3 42.66 1.33 28 1.33C13.33 1.33 1.33 13.3 1.33 28.05Z" stroke="#131313" stroke-opacity="1.000000" stroke-width="2.666667"/>
</svg>
