<svg width="37.333328" height="39.416748" viewBox="0 0 37.3333 39.4167" fill="none" xmlns="http://www.w3.org/2000/svg" xmlns:xlink="http://www.w3.org/1999/xlink">
	<desc>
			Created with Pixso.
	</desc>
	<defs/>
	<path id="path" d="M31.06 32.22L31.08 32.2C31.08 31.08 30.2 30.2 29.08 30.2C27.96 30.2 27.08 31.08 27.08 32.2L27.1 32.22L31.06 32.22ZM3.98 14.52L3.99 14.5C3.99 13.37 3.12 12.5 2 12.5C0.87 12.5 0 13.37 0 14.5L0.01 14.52L3.98 14.52ZM29.1 25.02L29.08 25C27.96 25 27.08 25.87 27.08 27C27.08 28.12 27.96 29 29.08 29L29.1 28.98L29.1 25.02ZM0.01 6.14L0 6.16C0 7.28 0.87 8.16 2 8.16C3.12 8.16 3.99 7.28 3.99 6.16L3.98 6.14L0.01 6.14Z" fill="#000000" fill-opacity="0" fill-rule="nonzero"/>
	<path id="path" d="M29.08 32.2L29.08 37.41L18.66 27L2 27L2 14.5M29.08 27L35.33 27L35.33 2L2 2L2 6.16" stroke="#DFAD60" stroke-opacity="1.000000" stroke-width="4.000000" stroke-linejoin="round" stroke-linecap="round"/>
</svg>
