<svg width="20.250000" height="19.125000" viewBox="0 0 20.25 19.125" fill="none" xmlns="http://www.w3.org/2000/svg" xmlns:xlink="http://www.w3.org/1999/xlink">
	<desc>
			Created with Pixso.
	</desc>
	<defs/>
	<path id="path" d="M14.12 12.26L13.61 12.77C13.61 12.77 12.39 13.99 9.07 10.68C5.74 7.37 6.96 6.16 6.96 6.16L7.28 5.84C8.08 5.05 8.15 3.78 7.46 2.86L6.04 0.96C5.18 -0.19 3.52 -0.34 2.54 0.64L0.77 2.4C0.29 2.88 -0.04 3.51 0 4.21C0.1 5.99 0.91 9.83 5.41 14.31C10.19 19.06 14.67 19.25 16.51 19.08C17.09 19.03 17.59 18.73 18 18.33L19.59 16.74C20.67 15.67 20.37 13.83 18.99 13.08L16.84 11.91C15.93 11.42 14.83 11.56 14.12 12.26Z" fill="#DFAD60" fill-opacity="1.000000" fill-rule="nonzero"/>
</svg>
